<mxfile host="app.diagrams.net" modified="2023-05-04T10:38:52.236Z" agent="Mozilla/5.0 (Windows NT 10.0; Win64; x64) AppleWebKit/537.36 (KHTML, like Gecko) Chrome/112.0.0.0 Safari/537.36" etag="8virEN_BVZnVPrOmmHi5" version="21.2.3" type="github">
  <diagram name="Page-1" id="7pIzHbVaMhjWodyTJUyD">
    <mxGraphModel dx="1050" dy="549" grid="1" gridSize="10" guides="1" tooltips="1" connect="1" arrows="1" fold="1" page="1" pageScale="1" pageWidth="850" pageHeight="1100" math="0" shadow="0">
      <root>
        <mxCell id="0" />
        <mxCell id="1" parent="0" />
        <mxCell id="iMubU9jxyR3AFrOgvaaI-1" value="Login" style="edgeStyle=orthogonalEdgeStyle;rounded=0;orthogonalLoop=1;jettySize=auto;html=1;entryX=0.563;entryY=0;entryDx=0;entryDy=0;entryPerimeter=0;fontSize=14;" edge="1" parent="1" source="iMubU9jxyR3AFrOgvaaI-2">
          <mxGeometry relative="1" as="geometry">
            <mxPoint x="160" y="210.58999999999992" as="targetPoint" />
          </mxGeometry>
        </mxCell>
        <mxCell id="iMubU9jxyR3AFrOgvaaI-2" value="Staff" style="shape=umlActor;verticalLabelPosition=bottom;verticalAlign=top;html=1;outlineConnect=0;fontSize=14;" vertex="1" parent="1">
          <mxGeometry x="30" y="180" width="30" height="60" as="geometry" />
        </mxCell>
        <mxCell id="iMubU9jxyR3AFrOgvaaI-6" value="App system" style="text;html=1;align=center;verticalAlign=middle;resizable=0;points=[];autosize=1;strokeColor=none;fillColor=none;" vertex="1" parent="1">
          <mxGeometry x="160" y="260" width="90" height="30" as="geometry" />
        </mxCell>
        <mxCell id="iMubU9jxyR3AFrOgvaaI-20" value="" style="verticalLabelPosition=bottom;verticalAlign=top;html=1;shadow=0;dashed=0;strokeWidth=1;shape=mxgraph.android.tab2;strokeColor=#c0c0c0;direction=north;" vertex="1" parent="1">
          <mxGeometry x="425" y="175" width="100" height="70" as="geometry" />
        </mxCell>
        <mxCell id="iMubU9jxyR3AFrOgvaaI-21" value="App system" style="text;html=1;align=center;verticalAlign=middle;resizable=0;points=[];autosize=1;strokeColor=none;fillColor=none;" vertex="1" parent="1">
          <mxGeometry x="750" y="260" width="90" height="30" as="geometry" />
        </mxCell>
        <mxCell id="iMubU9jxyR3AFrOgvaaI-25" style="edgeStyle=orthogonalEdgeStyle;rounded=0;orthogonalLoop=1;jettySize=auto;html=1;entryX=0.491;entryY=0.044;entryDx=0;entryDy=0;entryPerimeter=0;" edge="1" parent="1" source="iMubU9jxyR3AFrOgvaaI-23" target="iMubU9jxyR3AFrOgvaaI-20">
          <mxGeometry relative="1" as="geometry" />
        </mxCell>
        <mxCell id="iMubU9jxyR3AFrOgvaaI-26" value="Change to dashboard" style="edgeLabel;html=1;align=center;verticalAlign=middle;resizable=0;points=[];" vertex="1" connectable="0" parent="iMubU9jxyR3AFrOgvaaI-25">
          <mxGeometry x="-0.261" y="2" relative="1" as="geometry">
            <mxPoint as="offset" />
          </mxGeometry>
        </mxCell>
        <mxCell id="iMubU9jxyR3AFrOgvaaI-23" value="" style="verticalLabelPosition=bottom;verticalAlign=top;html=1;shadow=0;dashed=0;strokeWidth=1;shape=mxgraph.android.tab2;strokeColor=#c0c0c0;direction=north;" vertex="1" parent="1">
          <mxGeometry x="160" y="175" width="100" height="70" as="geometry" />
        </mxCell>
      </root>
    </mxGraphModel>
  </diagram>
</mxfile>
